<svg width="109" height="33" viewBox="0 0 109 33" fill="none" xmlns="http://www.w3.org/2000/svg">
<path d="M0.744141 13.2019C0.744141 11.4241 1.02649 9.845 1.5912 8.4646C2.17682 7.0633 2.98205 5.8816 4.00689 4.9195C5.05264 3.95741 6.29708 3.22539 7.74022 2.72343C9.18336 2.22147 10.7624 1.97049 12.4775 1.97049C14.2134 1.97049 15.803 2.22147 17.2461 2.72343C18.6892 3.22539 19.9232 3.95741 20.9481 4.9195C21.9938 5.8816 22.799 7.0633 23.3637 8.4646C23.9494 9.845 24.2422 11.4241 24.2422 13.2019C24.2422 14.9796 23.9494 16.5692 23.3637 17.9705C22.799 19.3509 21.9938 20.5221 20.9481 21.4842C19.9232 22.4463 18.6892 23.1679 17.2461 23.6489C15.803 24.109 14.2134 24.3391 12.4775 24.3391C10.7624 24.3391 9.18336 24.109 7.74022 23.6489C6.29708 23.1679 5.05264 22.4463 4.00689 21.4842C2.98205 20.5221 2.17682 19.3509 1.5912 17.9705C1.02649 16.5692 0.744141 14.9796 0.744141 13.2019ZM21.1677 13.2019C21.1677 11.4659 20.9481 9.97049 20.5088 8.71558C20.0696 7.43977 19.4526 6.39401 18.6579 5.57833C17.884 4.74173 16.9637 4.12473 15.8971 3.72735C14.8513 3.32996 13.7115 3.13127 12.4775 3.13127C11.2644 3.13127 10.1245 3.32996 9.05787 3.72735C8.01211 4.12473 7.09185 4.74173 6.29708 5.57833C5.52323 6.39401 4.91669 7.43977 4.47747 8.71558C4.03826 9.97049 3.81865 11.4659 3.81865 13.2019C3.81865 14.9378 4.03826 16.4437 4.47747 17.7195C4.91669 18.9744 5.52323 20.0202 6.29708 20.8568C7.09185 21.6724 8.01211 22.279 9.05787 22.6764C10.1245 23.0738 11.2644 23.2724 12.4775 23.2724C13.7115 23.2724 14.8513 23.0738 15.8971 22.6764C16.9637 22.279 17.884 21.6724 18.6579 20.8568C19.4526 20.0202 20.0696 18.9744 20.5088 17.7195C20.9481 16.4437 21.1677 14.9378 21.1677 13.2019Z" fill="#D68F4C"/>
<path d="M35.1287 11.6019C35.0241 11.4764 34.815 11.3613 34.5013 11.2568C34.2084 11.1522 33.9052 11.0999 33.5914 11.0999C33.0895 11.0999 32.6398 11.2149 32.2424 11.445C31.845 11.6751 31.5104 11.9888 31.2385 12.3862C30.9666 12.7626 30.7575 13.2228 30.6111 13.7666C30.4646 14.2894 30.3914 14.8541 30.3914 15.4607V18.9117C30.3914 20.313 30.3914 21.3901 30.3914 22.143C30.4124 22.8751 30.4542 23.4711 30.5169 23.9313C30.0986 23.8894 29.6803 23.8685 29.262 23.8685C28.8019 23.8685 28.3627 23.8894 27.9444 23.9313C28.0071 23.2202 28.0385 22.2581 28.0385 21.045C28.0594 19.811 28.0699 18.3051 28.0699 16.5273V15.5234C28.0699 14.7077 28.0594 13.7666 28.0385 12.6999C28.0385 11.6332 28.0071 10.4097 27.9444 9.02931C28.1744 9.07114 28.3941 9.11297 28.6032 9.1548C28.8124 9.17571 29.032 9.18617 29.262 9.18617C29.4503 9.18617 29.649 9.17571 29.8581 9.1548C30.0673 9.11297 30.2869 9.07114 30.5169 9.02931C30.4333 9.78225 30.381 10.3783 30.3601 10.8175C30.3601 11.2568 30.3601 11.6751 30.3601 12.0724L30.4228 12.1038C31.6568 9.845 33.0372 8.71558 34.564 8.71558C34.7522 8.71558 34.9091 8.72604 35.0346 8.74696C35.181 8.76787 35.3588 8.82016 35.5679 8.90382C35.4633 9.1548 35.4006 9.54173 35.3797 10.0646C35.3588 10.5666 35.3483 11.0267 35.3483 11.445L35.1287 11.6019Z" fill="#D68F4C"/>
<path d="M38.7682 3.57049C38.7682 3.13127 38.925 2.7548 39.2387 2.44107C39.5525 2.12735 39.9289 1.97049 40.3682 1.97049C40.8074 1.97049 41.1838 2.12735 41.4976 2.44107C41.8113 2.7548 41.9682 3.13127 41.9682 3.57049C41.9682 4.0097 41.8113 4.38617 41.4976 4.6999C41.1838 5.01362 40.8074 5.17049 40.3682 5.17049C39.9289 5.17049 39.5525 5.01362 39.2387 4.6999C38.925 4.38617 38.7682 4.0097 38.7682 3.57049ZM39.2074 14.896C39.2074 13.9548 39.1865 12.9718 39.1446 11.947C39.1237 10.9012 39.061 9.92866 38.9564 9.02931C39.542 9.13388 40.0126 9.18617 40.3682 9.18617C40.7237 9.18617 41.1943 9.13388 41.7799 9.02931C41.6754 9.92866 41.6021 10.9012 41.5603 11.947C41.5394 12.9718 41.5289 13.9548 41.5289 14.896V18.1587C41.5289 19.0999 41.5394 20.0934 41.5603 21.1391C41.6021 22.1639 41.6754 23.0947 41.7799 23.9313C41.2989 23.8894 40.8283 23.8685 40.3682 23.8685C39.908 23.8685 39.4374 23.8894 38.9564 23.9313C39.061 23.0947 39.1237 22.1639 39.1446 21.1391C39.1865 20.0934 39.2074 19.0999 39.2074 18.1587V14.896Z" fill="#D68F4C"/>
<path d="M57.4449 27.2568C57.4449 26.0019 57.0789 25.1234 56.3468 24.6215C55.6148 24.1195 54.4017 23.8685 52.7076 23.8685C51.139 23.8685 49.9259 24.1195 49.0684 24.6215C48.2109 25.1443 47.7821 26.0751 47.7821 27.4136C47.7821 28.1247 47.8972 28.7313 48.1272 29.2332C48.3782 29.7352 48.7024 30.143 49.0998 30.4568C49.5181 30.7705 50.0096 31.0006 50.5743 31.147C51.139 31.2934 51.7455 31.3666 52.3939 31.3666C53.0213 31.3666 53.6383 31.2829 54.2449 31.1156C54.8514 30.9483 55.3847 30.6973 55.8449 30.3626C56.3259 30.028 56.7128 29.5992 57.0057 29.0764C57.2985 28.5744 57.4449 27.9679 57.4449 27.2568ZM55.7508 13.6724C55.7508 12.3548 55.437 11.3509 54.8096 10.6607C54.1821 9.97049 53.356 9.62539 52.3312 9.62539C51.2017 9.62539 50.3233 10.0123 49.6959 10.7862C49.0684 11.5391 48.7547 12.5535 48.7547 13.8293C48.7547 15.147 49.037 16.1927 49.6017 16.9666C50.1874 17.7195 51.0867 18.096 52.2998 18.096C52.9063 18.096 53.4187 17.9809 53.837 17.7509C54.2762 17.4999 54.6318 17.1757 54.9037 16.7783C55.1965 16.36 55.4057 15.8894 55.5311 15.3666C55.6776 14.8228 55.7508 14.2581 55.7508 13.6724ZM46.3076 13.8293C46.3076 12.9509 46.4645 12.1979 46.7782 11.5705C47.0919 10.9221 47.5207 10.3888 48.0645 9.97049C48.6292 9.55218 49.2671 9.23846 49.9782 9.02931C50.7102 8.82016 51.4841 8.71558 52.2998 8.71558C52.6972 8.71558 53.0736 8.72604 53.4292 8.74696C53.8057 8.76787 54.2762 8.79924 54.841 8.84107C55.322 8.8829 55.7508 8.91428 56.1272 8.93519C56.5037 8.95611 56.807 8.96656 57.037 8.96656C58.2083 8.96656 59.0553 8.91428 59.5782 8.8097C59.5573 8.91428 59.5364 9.02931 59.5155 9.1548C59.5155 9.25937 59.5155 9.36395 59.5155 9.46852C59.5155 9.5731 59.5155 9.68813 59.5155 9.81362C59.5364 9.9182 59.5573 10.0228 59.5782 10.1273C58.9717 10.0855 58.3756 10.0437 57.79 10.0019C57.2253 9.93911 56.6606 9.89728 56.0959 9.87637L56.0331 9.93911C56.6815 10.2947 57.2044 10.8489 57.6017 11.6019C57.9991 12.3339 58.1978 13.0973 58.1978 13.8921C58.1978 15.4607 57.6645 16.6947 56.5978 17.594C55.5521 18.4724 54.1403 18.9117 52.3625 18.9117C52.0697 18.9117 51.7769 18.9012 51.4841 18.8803C51.2122 18.8594 50.9298 18.8489 50.637 18.8489C50.2606 18.8489 49.905 18.9849 49.5704 19.2568C49.2566 19.5287 49.0998 19.8738 49.0998 20.2921C49.0998 20.8358 49.2253 21.2332 49.4762 21.4842C49.7481 21.7352 50.2396 21.8711 50.9508 21.8921C51.5364 21.913 52.1115 21.9339 52.6762 21.9548C53.241 21.9548 53.8161 21.9653 54.4017 21.9862C55.3638 22.0071 56.1795 22.1221 56.8488 22.3313C57.539 22.5404 58.0932 22.8228 58.5115 23.1783C58.9508 23.5339 59.2645 23.9417 59.4527 24.4019C59.6619 24.862 59.7664 25.364 59.7664 25.9077C59.7664 26.6398 59.62 27.3823 59.3272 28.1352C59.0553 28.8881 58.6161 29.5679 58.0096 30.1744C57.424 30.7809 56.6606 31.2829 55.7194 31.6803C54.7782 32.0777 53.6488 32.2764 52.3312 32.2764C50.3024 32.2764 48.7024 31.8685 47.5311 31.0528C46.3599 30.2581 45.7743 29.16 45.7743 27.7587C45.7743 27.2149 45.8684 26.713 46.0566 26.2528C46.2658 25.7927 46.5272 25.3849 46.841 25.0293C47.1547 24.6738 47.5102 24.3914 47.9076 24.1823C48.305 23.9731 48.7128 23.8162 49.1311 23.7117V23.6489C48.4828 23.4607 47.9913 23.147 47.6566 22.7077C47.322 22.2685 47.1547 21.7456 47.1547 21.1391C47.1547 20.7836 47.2174 20.4594 47.3429 20.1666C47.4893 19.8738 47.6671 19.6123 47.8762 19.3822C48.0854 19.1522 48.3259 18.9639 48.5978 18.8175C48.8697 18.6711 49.1311 18.577 49.3821 18.5352V18.4724C48.42 18.0541 47.6671 17.4685 47.1233 16.7156C46.5795 15.9417 46.3076 14.9796 46.3076 13.8293Z" fill="#D68F4C"/>
<path d="M63.1861 3.57049C63.1861 3.13127 63.3429 2.7548 63.6566 2.44107C63.9704 2.12735 64.3468 1.97049 64.786 1.97049C65.2253 1.97049 65.6017 2.12735 65.9155 2.44107C66.2292 2.7548 66.3861 3.13127 66.3861 3.57049C66.3861 4.0097 66.2292 4.38617 65.9155 4.6999C65.6017 5.01362 65.2253 5.17049 64.786 5.17049C64.3468 5.17049 63.9704 5.01362 63.6566 4.6999C63.3429 4.38617 63.1861 4.0097 63.1861 3.57049ZM63.6253 14.896C63.6253 13.9548 63.6043 12.9718 63.5625 11.947C63.5416 10.9012 63.4789 9.92866 63.3743 9.02931C63.9599 9.13388 64.4305 9.18617 64.786 9.18617C65.1416 9.18617 65.6122 9.13388 66.1978 9.02931C66.0932 9.92866 66.02 10.9012 65.9782 11.947C65.9573 12.9718 65.9468 13.9548 65.9468 14.896V18.1587C65.9468 19.0999 65.9573 20.0934 65.9782 21.1391C66.02 22.1639 66.0932 23.0947 66.1978 23.9313C65.7168 23.8894 65.2462 23.8685 64.786 23.8685C64.3259 23.8685 63.8553 23.8894 63.3743 23.9313C63.4789 23.0947 63.5416 22.1639 63.5625 21.1391C63.6043 20.0934 63.6253 19.0999 63.6253 18.1587V14.896Z" fill="#D68F4C"/>
<path d="M81.7686 15.1156C81.7686 13.547 81.4654 12.3653 80.8588 11.5705C80.2523 10.7548 79.4157 10.347 78.349 10.347C76.885 10.347 75.8079 10.7966 75.1177 11.696C74.4484 12.5953 74.1137 13.8607 74.1137 15.4921V18.1587C74.1137 19.0999 74.1242 20.0934 74.1451 21.1391C74.187 22.1639 74.2601 23.0947 74.3647 23.9313C73.8837 23.8894 73.4131 23.8685 72.953 23.8685C72.4928 23.8685 72.0222 23.8894 71.5412 23.9313C71.6458 23.0947 71.7085 22.1639 71.7294 21.1391C71.7713 20.0934 71.7922 19.0999 71.7922 18.1587V14.896C71.7922 13.9548 71.7713 12.9718 71.7294 11.947C71.7085 10.9012 71.6458 9.92866 71.5412 9.02931C72.1268 9.13388 72.5974 9.18617 72.953 9.18617C73.1203 9.18617 73.2981 9.17571 73.4863 9.1548C73.6954 9.11297 73.936 9.07114 74.2079 9.02931C74.1451 9.86591 74.1137 10.7025 74.1137 11.5391H74.1765C74.7621 10.6398 75.4628 9.94957 76.2785 9.46852C77.0941 8.96656 78.0667 8.71558 79.1961 8.71558C79.7817 8.71558 80.3673 8.79924 80.953 8.96656C81.5595 9.13388 82.1033 9.42669 82.5843 9.84499C83.0654 10.2424 83.4523 10.7966 83.7451 11.5077C84.0589 12.1979 84.2157 13.0868 84.2157 14.1744C84.2157 15.0738 84.1948 16.0045 84.153 16.9666C84.1111 17.9077 84.0902 18.9117 84.0902 19.9783V22.0175C84.0902 22.3522 84.0902 22.6868 84.0902 23.0215C84.1111 23.3352 84.132 23.6385 84.153 23.9313C83.7347 23.8894 83.2954 23.8685 82.8353 23.8685C82.3961 23.8685 81.9673 23.8894 81.549 23.9313C81.5909 22.8437 81.6327 21.7247 81.6745 20.5744C81.7373 19.4241 81.7686 18.2424 81.7686 17.0293V15.1156Z" fill="#D68F4C"/>
<path d="M97.0365 16.1195C96.681 16.245 96.2627 16.3496 95.7816 16.4332C95.3215 16.5169 94.8509 16.611 94.3699 16.7156C93.8888 16.7992 93.4078 16.9143 92.9267 17.0607C92.4666 17.2071 92.0483 17.4058 91.6718 17.6568C91.3163 17.9077 91.0235 18.2215 90.7934 18.5979C90.5843 18.9744 90.4797 19.4555 90.4797 20.0411C90.4797 21.0241 90.762 21.7666 91.3267 22.2685C91.8914 22.7705 92.5189 23.0215 93.2091 23.0215C94.0039 23.0215 94.7254 22.8019 95.3738 22.3626C96.0431 21.9234 96.5555 21.411 96.911 20.8254L97.0365 16.1195ZM89.2875 10.5352C90.2287 9.82408 91.0967 9.34303 91.8914 9.09205C92.6862 8.84107 93.5019 8.71558 94.3385 8.71558C95.0914 8.71558 95.7816 8.83062 96.4091 9.06068C97.0365 9.26983 97.5699 9.58356 98.0091 10.0019C98.4483 10.3992 98.7934 10.8907 99.0444 11.4764C99.2954 12.0411 99.4209 12.6685 99.4209 13.3587C99.4209 14.5509 99.3999 15.743 99.3581 16.9352C99.3163 18.1064 99.2954 19.3509 99.2954 20.6685C99.2954 20.9195 99.2954 21.1914 99.2954 21.4842C99.3163 21.7561 99.3686 22.0071 99.4522 22.2372C99.5359 22.4463 99.6509 22.6241 99.7973 22.7705C99.9646 22.9169 100.205 22.9901 100.519 22.9901C100.623 22.9901 100.728 22.9901 100.833 22.9901C100.958 22.9692 101.073 22.9273 101.178 22.8646V23.5548C100.948 23.6594 100.655 23.743 100.299 23.8058C99.9646 23.8685 99.5882 23.8999 99.1699 23.8999C98.5006 23.8999 97.9882 23.7326 97.6326 23.3979C97.2771 23.0424 97.0679 22.5927 97.0052 22.0489C96.2522 22.8019 95.5097 23.3561 94.7777 23.7117C94.0457 24.0672 93.1463 24.245 92.0797 24.245C91.5568 24.245 91.0444 24.1718 90.5424 24.0254C90.0405 23.879 89.5908 23.6385 89.1934 23.3038C88.8169 22.9692 88.5032 22.5718 88.2522 22.1117C88.0222 21.6306 87.9071 21.0868 87.9071 20.4803C87.9071 19.2254 88.2941 18.2528 89.0679 17.5626C89.8627 16.8724 90.9503 16.4123 92.3307 16.1823C93.4601 15.994 94.3385 15.8372 94.966 15.7117C95.6143 15.5653 96.0849 15.4188 96.3777 15.2724C96.6914 15.126 96.8797 14.9587 96.9424 14.7705C97.0052 14.5613 97.0365 14.2999 97.0365 13.9862C97.0365 13.4633 96.9738 12.9613 96.8483 12.4803C96.7228 11.9992 96.5241 11.5809 96.2522 11.2254C95.9803 10.8698 95.6248 10.5875 95.1856 10.3783C94.7463 10.1483 94.213 10.0332 93.5856 10.0332C92.749 10.0332 91.9646 10.2215 91.2326 10.5979C90.5215 10.9744 89.9882 11.4973 89.6326 12.1666H89.2875V10.5352Z" fill="#D68F4C"/>
<path d="M105.476 9.31166C105.476 8.60055 105.465 7.82669 105.444 6.99009C105.444 6.15349 105.434 5.32735 105.413 4.51166C105.392 3.69598 105.361 2.92212 105.319 2.19009C105.298 1.43715 105.267 0.799242 105.225 0.276367C105.81 0.380942 106.281 0.43323 106.637 0.43323C106.992 0.43323 107.463 0.380942 108.048 0.276367C108.006 0.799242 107.965 1.43715 107.923 2.19009C107.902 2.92212 107.881 3.69598 107.86 4.51166C107.839 5.32735 107.818 6.15349 107.797 6.99009C107.797 7.82669 107.797 8.60055 107.797 9.31166V14.9901C107.797 15.7012 107.797 16.4751 107.797 17.3117C107.818 18.1483 107.839 18.9744 107.86 19.7901C107.881 20.6058 107.902 21.3796 107.923 22.1117C107.965 22.8437 108.006 23.4502 108.048 23.9313C107.567 23.8894 107.097 23.8685 106.637 23.8685C106.176 23.8685 105.706 23.8894 105.225 23.9313C105.267 23.4502 105.298 22.8437 105.319 22.1117C105.361 21.3796 105.392 20.6058 105.413 19.7901C105.434 18.9744 105.444 18.1483 105.444 17.3117C105.465 16.4751 105.476 15.7012 105.476 14.9901V9.31166Z" fill="#D68F4C"/>
</svg>
