<svg width="12" height="13" viewBox="0 0 12 13" fill="none" xmlns="http://www.w3.org/2000/svg">
<path d="M4.29818 3.35978H6.63151C6.94093 3.35978 7.23768 3.4827 7.45647 3.70149C7.67526 3.92028 7.79818 4.21703 7.79818 4.52645V5.69312C7.79818 6.18312 7.50651 6.59728 7.07484 6.77228L7.79818 9.19312H6.63151L5.93151 6.85978H5.46484V9.19312H4.29818V3.35978ZM5.46484 4.52645V5.69312H6.63151V4.52645H5.46484ZM6.04818 0.443115C6.81422 0.443115 7.57277 0.593999 8.2805 0.887151C8.98823 1.1803 9.63129 1.60998 10.173 2.15166C10.7146 2.69333 11.1443 3.3364 11.4375 4.04413C11.7306 4.75186 11.8815 5.5104 11.8815 6.27645C11.8815 7.82355 11.2669 9.30728 10.173 10.4012C9.07901 11.4952 7.59527 12.1098 6.04818 12.1098C5.28213 12.1098 4.52359 11.9589 3.81586 11.6657C3.10812 11.3726 2.46506 10.9429 1.92339 10.4012C0.829425 9.30728 0.214844 7.82355 0.214844 6.27645C0.214844 4.72935 0.829425 3.24562 1.92339 2.15166C3.01735 1.0577 4.50108 0.443115 6.04818 0.443115ZM6.04818 1.60978C4.8105 1.60978 3.62352 2.10145 2.74835 2.97662C1.87318 3.85179 1.38151 5.03877 1.38151 6.27645C1.38151 8.84895 3.46984 10.9431 6.04818 10.9431C7.28585 10.9431 8.47284 10.4515 9.34801 9.57628C10.2232 8.70111 10.7148 7.51413 10.7148 6.27645C10.7148 5.03877 10.2232 3.85179 9.34801 2.97662C8.47284 2.10145 7.28585 1.60978 6.04818 1.60978Z" fill="#D68F4C"/>
</svg>
