<svg width="12" height="13" viewBox="0 0 12 13" fill="none" xmlns="http://www.w3.org/2000/svg">
<path d="M4.29769 3.35966H6.63102C6.94044 3.35966 7.23719 3.48258 7.45598 3.70137C7.67477 3.92016 7.79769 4.21691 7.79769 4.52633V5.69299C7.79769 6.18299 7.50602 6.59716 7.07436 6.77216L7.79769 9.19299H6.63102L5.93102 6.85966H5.46436V9.19299H4.29769V3.35966ZM5.46436 4.52633V5.69299H6.63102V4.52633H5.46436ZM6.04769 0.442993C6.81373 0.442993 7.57228 0.593877 8.28001 0.887029C8.98774 1.18018 9.6308 1.60986 10.1725 2.15154C10.7142 2.69321 11.1438 3.33627 11.437 4.04401C11.7301 4.75174 11.881 5.51028 11.881 6.27633C11.881 7.82342 11.2664 9.30715 10.1725 10.4011C9.07852 11.4951 7.59479 12.1097 6.04769 12.1097C5.28164 12.1097 4.5231 11.9588 3.81537 11.6656C3.10764 11.3725 2.46457 10.9428 1.9229 10.4011C0.828937 9.30715 0.214355 7.82342 0.214355 6.27633C0.214355 4.72923 0.828937 3.2455 1.9229 2.15154C3.01686 1.05757 4.50059 0.442993 6.04769 0.442993V0.442993ZM6.04769 1.60966C4.81001 1.60966 3.62303 2.10133 2.74786 2.9765C1.87269 3.85166 1.38102 5.03865 1.38102 6.27633C1.38102 8.84883 3.46936 10.943 6.04769 10.943C7.28537 10.943 8.47235 10.4513 9.34752 9.57616C10.2227 8.70099 10.7144 7.514 10.7144 6.27633C10.7144 5.03865 10.2227 3.85166 9.34752 2.9765C8.47235 2.10133 7.28537 1.60966 6.04769 1.60966V1.60966Z" fill="#131313"/>
</svg>
